<svg height="300px" width="300px" fill="#000000" xmlns="http://www.w3.org/2000/svg" xmlns:xlink="http://www.w3.org/1999/xlink" xmlns:sketch="http://www.bohemiancoding.com/sketch/ns" viewBox="0 0 30 30" version="1.1" x="0px" y="0px"><title>action_005-open-new-tab-arrow-window</title><desc>Created with Sketch.</desc><g stroke="none" stroke-width="1" fill="none" fill-rule="evenodd" sketch:type="MSPage"><g sketch:type="MSArtboardGroup" transform="translate(-225.000000, -45.000000)" fill="#000000"><g sketch:type="MSLayerGroup" transform="translate(228.000000, 48.000000)"><path d="M6,0.5 L6,17.5 C6,17.7761424 6.22385763,18 6.5,18 L23.5,18 C23.7761424,18 24,17.7761424 24,17.5 L24,0.5 C24,0.223857625 23.7761424,0 23.5,0 L6.5,0 C6.22385763,0 6,0.223857625 6,0.5 Z M7,1 L23,1 L23,17 L7,17 L7,1 Z M21,8.5 C21,8.77614237 21.2238576,9 21.5,9 C21.7761424,9 22,8.77614237 22,8.5 L22,2.5 C22,2.22385763 21.7761424,2 21.5,2 L15.5,2 C15.2238576,2 15,2.22385763 15,2.5 C15,2.77614237 15.2238576,3 15.5,3 L20.2928932,3 L11.1464466,12.1464466 C10.9511845,12.3417088 10.9511845,12.6582912 11.1464466,12.8535534 C11.3417088,13.0488155 11.6582912,13.0488155 11.8535534,12.8535534 L21,3.70710678 L21,8.5 Z" sketch:type="MSShapeGroup"/><path d="M18,23.5 C18,23.7761424 17.7761424,24 17.5,24 L0.5,24 C0.223857625,24 0,23.7761424 0,23.5 L0,6.5 C0,6.22385763 0.223857625,6 0.5,6 L7,6 L7,7 L1,7 L1,23 L17,23 L17,17 L18,17 L18,23.5 Z" sketch:type="MSShapeGroup"/></g></g></g></svg>